Coordinates
version=1
nRows=15
nColumns=46
inDegrees=yes

Units are S.I. units (second, meters, Newtons, ...)
Angles are in degrees.

endheader
time	pelvis_tilt	pelvis_list	pelvis_rotation	pelvis_tx	pelvis_ty	pelvis_tz	bb_angle	bb_tx	bb_ty	bb_tz	hip_flexion_r	hip_adduction_r	hip_rotation_r	knee_angle_r	knee_angle_r_beta	ankle_angle_r	subtalar_angle_r	mtp_angle_r	crank_angle_r	hip_flexion_l	hip_adduction_l	hip_rotation_l	knee_angle_l	knee_angle_l_beta	ankle_angle_l	subtalar_angle_l	mtp_angle_l	crank_angle_l	lumbar_extension	lumbar_bending	lumbar_rotation	arm_flex_r	arm_add_r	arm_rot_r	elbow_flex_r	pro_sup_r	wrist_flex_r	wrist_dev_r	arm_flex_l	arm_add_l	arm_rot_l	elbow_flex_l	pro_sup_l	wrist_flex_l	wrist_dev_l
      7.50500000	     -8.36726810	      0.42653392	      0.27664057	      0.12713564	      1.12479929	     -0.27125718	      0.00000000	      0.50000000	      0.00000000	      0.25000000	     58.77423262	    -11.66826915	     -2.62672073	     99.18842881	      1.73116466	      9.34336454	     -2.89455907	      0.00000000	      0.00000000	     59.89616790	     -3.97711484	      2.42342167	     60.96252451	      1.06399677	      5.94833816	     -3.28362966	      0.00000000	      0.00000000	    -66.74950189	      2.18555203	     -4.66702732	     84.13048793	    -14.46045086	     33.74942103	     62.63357096	     43.88433388	      0.00000000	      0.00000000	     78.73918783	    -25.19609404	     23.40927169	     67.33690861	     50.41435072	      0.00000000	      0.00000000
      7.51000000	     -8.28515705	      0.48947931	      0.18150946	      0.12773216	      1.12659450	     -0.27215027	      0.00000000	      0.50000000	      0.00000000	      0.25000000	     59.73249735	    -11.92017370	     -2.26792081	    100.74013032	      1.75824696	     10.25138573	     -2.20438992	      0.00000000	      0.00000000	     58.03879919	     -4.04285774	      2.11613242	     58.46871115	      1.02047152	      4.82832520	     -2.45990162	      0.00000000	      0.00000000	    -66.98556997	      2.23200431	     -4.90936843	     84.65449335	    -14.40457576	     34.54654440	     62.26582026	     43.92445154	      0.00000000	      0.00000000	     78.87358212	    -25.81850658	     23.83815051	     67.42602170	     50.47859227	      0.00000000	      0.00000000
      7.51500000	     -8.58197485	     -0.06793187	      0.05758571	      0.12830279	      1.12762890	     -0.27284491	      0.00000000	      0.50000000	      0.00000000	      0.25000000	     60.97555377	    -11.63257629	     -2.45530025	    102.13253567	      1.78254902	     10.85268301	     -2.25294089	      0.00000000	      0.00000000	     56.73434881	     -4.56650972	      2.32957807	     56.19003526	      0.98070112	      3.86434714	     -1.65849037	      0.00000000	      0.00000000	    -66.78111321	      2.64799506	     -4.33841839	     84.77094329	    -14.25611297	     34.64280690	     62.27660766	     43.93829578	      0.00000000	      0.00000000	     78.68510321	    -26.08771508	     23.84994038	     67.38803720	     50.46937995	      0.00000000	      0.00000000
      7.52000000	     -8.68794116	     -0.03683963	     -0.14825555	      0.12926049	      1.12921581	     -0.27342813	      0.00000000	      0.50000000	      0.00000000	      0.25000000	     62.18997761	    -11.71631118	     -2.03997688	    103.56087269	      1.80747820	     11.62118290	     -1.48709030	      0.00000000	      0.00000000	     54.96904995	     -4.82279441	      1.85069201	     53.72525177	      0.93768253	      2.93124611	     -0.65405239	      0.00000000	      0.00000000	    -66.78910328	      2.63193071	     -4.47903446	     85.11606527	    -14.11389658	     35.30329390	     62.02046334	     43.97611405	      0.00000000	      0.00000000	     78.61855372	    -26.59713822	     24.13010442	     67.42347465	     50.51569182	      0.00000000	      0.00000000
      7.52500000	     -9.03737959	     -0.61187065	     -0.34218679	      0.12990292	      1.13033776	     -0.27425372	      0.00000000	      0.50000000	      0.00000000	      0.25000000	     63.52644545	    -11.37071639	     -2.23261483	    104.79590850	      1.82903365	     12.10696605	     -1.45001853	      0.00000000	      0.00000000	     53.64135563	     -5.44448157	      1.90384025	     51.47806517	      0.89846173	      2.13856536	      0.08799182	      0.00000000	      0.00000000	    -66.58878576	      3.08952756	     -3.83914980	     85.24631962	    -13.90537835	     35.40215360	     62.04363868	     43.99035271	      0.00000000	      0.00000000	     78.47229039	    -26.87384570	     24.11565414	     67.37499992	     50.50170845	      0.00000000	      0.00000000
      7.53000000	     -8.99969747	     -0.58276254	     -0.86247677	      0.13086606	      1.13235422	     -0.27445624	      0.00000000	      0.50000000	      0.00000000	      0.25000000	     64.63893286	    -11.10270460	     -1.68718478	    106.01610200	      1.85033004	     12.84151330	     -0.81149900	      0.00000000	      0.00000000	     51.59627498	     -6.00455493	      0.99274331	     48.98470559	      0.85494440	      1.28405943	      1.24410566	      0.00000000	      0.00000000	    -66.79738340	      2.81964402	     -3.96650190	     85.79238044	    -13.63234527	     36.25627554	     61.52291204	     44.00019859	      0.00000000	      0.00000000	     78.42176125	    -27.52146072	     24.40429432	     67.41163726	     50.55024485	      0.00000000	      0.00000000
      7.53500000	     -9.32132883	     -1.13209753	     -1.03932095	      0.13149611	      1.13316622	     -0.27515748	      0.00000000	      0.50000000	      0.00000000	      0.25000000	     66.03611876	    -10.77223271	     -1.87201591	    107.17045598	      1.87047732	     13.30407224	     -0.81278721	      0.00000000	      0.00000000	     50.26770496	     -6.60914837	      0.95114720	     46.90032700	      0.81856513	      0.58822886	      1.92113468	      0.00000000	      0.00000000	    -66.61362955	      3.31856215	     -3.31440556	     85.94537816	    -13.37140624	     36.38363921	     61.56073457	     44.01830646	      0.00000000	      0.00000000	     78.28196709	    -27.77310786	     24.39394184	     67.34279141	     50.53518214	      0.00000000	      0.00000000
      7.54000000	     -9.14361020	     -1.16197644	     -1.48051809	      0.13242786	      1.13483029	     -0.27507269	      0.00000000	      0.50000000	      0.00000000	      0.25000000	     67.08527872	    -10.49415022	     -1.46112955	    108.34177518	      1.89092069	     13.75655500	     -0.26879390	      0.00000000	      0.00000000	     48.17977163	     -7.14986224	     -0.00414681	     44.66672695	      0.77958145	     -0.16261888	      2.99499303	      0.00000000	      0.00000000	    -66.90841634	      3.13305761	     -3.39410623	     86.39494884	    -13.08245120	     37.16016060	     61.19112698	     44.03745658	      0.00000000	      0.00000000	     78.25518601	    -28.29117439	     24.53355647	     67.18590512	     50.53629617	      0.00000000	      0.00000000
      7.54500000	     -9.38021224	     -1.65368806	     -1.97067010	      0.13340235	      1.13590181	     -0.27559441	      0.00000000	      0.50000000	      0.00000000	      0.25000000	     68.44164563	     -9.95897653	     -1.56158836	    109.28689264	      1.90741611	     14.03748685	     -0.13212355	      0.00000000	      0.00000000	     46.72087248	     -7.97533376	     -0.57642039	     42.74060116	      0.74596421	     -0.94942310	      3.68996904	      0.00000000	      0.00000000	    -66.83479966	      3.33332650	     -2.82558796	     86.70282149	    -12.81741225	     37.54717889	     61.05855248	     44.05240426	      0.00000000	      0.00000000	     78.01112903	    -28.67442483	     24.53552213	     67.10774280	     50.52980662	      0.00000000	      0.00000000
      7.55000000	     -9.38310478	     -1.89141477	     -2.49428566	      0.13436537	      1.13716635	     -0.27585272	      0.00000000	      0.50000000	      0.00000000	      0.25000000	     69.65167573	     -9.45926921	     -1.38465133	    110.23055973	      1.92388620	     14.25757370	     -0.03064870	      0.00000000	      0.00000000	     44.96146013	     -8.62865029	     -1.48109113	     40.85075189	      0.71298012	     -1.53867119	      4.45537915	      0.00000000	      0.00000000	    -66.96971572	      3.33196528	     -2.53919007	     87.05536893	    -12.55165602	     38.16191955	     60.82153197	     44.06989979	      0.00000000	      0.00000000	     77.84242545	    -29.05960058	     24.45055361	     67.03380761	     50.52138750	      0.00000000	      0.00000000
      7.55500000	     -9.67317849	     -2.41714203	     -2.69821485	      0.13510692	      1.13775836	     -0.27653868	      0.00000000	      0.50000000	      0.00000000	      0.25000000	     71.10168689	     -9.13305502	     -1.61381290	    111.08155947	      1.93873895	     14.23534066	      0.07198343	      0.00000000	      0.00000000	     43.80533003	     -9.25038714	     -1.85624773	     39.30683308	      0.68603366	     -2.15151662	      4.97982504	      0.00000000	      0.00000000	    -66.84749286	      3.81942767	     -1.94810562	     87.26024737	    -12.34920060	     38.23052245	     60.90120612	     44.08555910	      0.00000000	      0.00000000	     77.66744722	    -29.27326162	     24.39438533	     66.94725371	     50.49979848	      0.00000000	      0.00000000
      7.56000000	     -9.43463209	     -2.51305767	     -3.33605467	      0.13616067	      1.13937088	     -0.27641919	      0.00000000	      0.50000000	      0.00000000	      0.25000000	     72.13730208	     -8.61332516	     -1.37766381	    111.85979909	      1.95232179	     14.24876789	      0.09974538	      0.00000000	      0.00000000	     41.89122945	     -9.92168169	     -3.28321083	     37.73080825	      0.65852683	     -2.82679560	      5.90696731	      0.00000000	      0.00000000	    -67.26710904	      3.56223742	     -1.75171783	     87.57905924	    -12.25623949	     38.85398951	     60.81428421	     44.11882503	      0.00000000	      0.00000000	     77.49971873	    -29.53766182	     24.19574558	     66.93141244	     50.48945961	      0.00000000	      0.00000000
      7.56500000	     -9.53018153	     -2.83365002	     -3.58176623	      0.13677115	      1.14014543	     -0.27672997	      0.00000000	      0.50000000	      0.00000000	      0.25000000	     73.50364469	     -8.27671163	     -1.46562722	    112.52970801	      1.96401391	     13.92515891	     -0.00615169	      0.00000000	      0.00000000	     40.66049873	    -10.45252817	     -4.04610988	     36.49608880	      0.63697691	     -3.53281245	      6.55810768	      0.00000000	      0.00000000	    -67.34167286	      3.81948001	     -1.36191810	     87.75884212	    -12.20753774	     39.09687878	     60.89171316	     44.14281810	      0.00000000	      0.00000000	     77.32543720	    -29.75176278	     24.08846370	     66.91801933	     50.48334731	      0.00000000	      0.00000000
      7.57000000	     -9.70819816	     -3.21770270	     -3.67816409	      0.13726560	      1.14066505	     -0.27748692	      0.00000000	      0.50000000	      0.00000000	      0.25000000	     74.92598298	     -8.11230440	     -1.66428065	    113.10901851	      1.97412479	     13.56668170	      0.07499257	      0.00000000	      0.00000000	     39.67423821	    -10.89686691	     -4.55900159	     35.48362562	      0.61930610	     -4.09356993	      7.03467430	      0.00000000	      0.00000000	    -67.36136416	      4.28898078	     -0.89927857	     87.95134826	    -12.10292545	     39.12035832	     61.03122145	     44.16096165	      0.00000000	      0.00000000	     77.20505449	    -29.89288440	     24.02432775	     66.87123690	     50.46675501	      0.00000000	      0.00000000
      7.57500000	     -9.54806534	     -3.36590878	     -4.14945588	      0.13778663	      1.14192135	     -0.27722491	      0.00000000	      0.50000000	      0.00000000	      0.25000000	     76.07125554	     -7.52771247	     -1.55504208	    113.56283376	      1.98204536	     12.89299484	     -0.34752430	      0.00000000	      0.00000000	     38.21641012	    -11.51957660	     -5.92606174	     34.48854800	      0.60193872	     -4.69175120	      8.09596452	      0.00000000	      0.00000000	    -67.72682308	      4.13173378	     -0.58936058	     88.13347744	    -12.28328033	     39.57564909	     61.33155781	     44.22547287	      0.00000000	      0.00000000	     77.07023487	    -29.98911248	     23.79645661	     66.98303996	     50.47503865	      0.00000000	      0.00000000
